<svg viewBox="0 0 840 840" width="840" height="840" x="0" y="0" xmlns="http://www.w3.org/2000/svg"><defs><pattern id="diagonalStripes" x="0" y="0" width="8" height="8" patternUnits="userSpaceOnUse"><polygon points="0,4 0,8 8,0 4,0" fill="#ffffff"></polygon><polygon points="4,8 8,8 8,4" fill="#ffffff"></polygon></pattern><mask id="grating" x="0" y="0" width="1" height="1"><rect x="0" y="0" width="100%" height="100%" fill="url(#diagonalStripes)"></rect></mask></defs><g id="horizStripes"><rect fill="#CD072B" height="140" width="100%" x="0" y="0"></rect><rect fill="#F2B409" height="140" width="100%" x="0" y="140"></rect><rect fill="#5C442B" height="140" width="100%" x="0" y="280"></rect><rect fill="#3D312B" height="140" width="100%" x="0" y="420"></rect><rect fill="#FFFFFF" height="140" width="100%" x="0" y="560"></rect><rect fill="#5C442B" height="140" width="100%" x="0" y="700"></rect></g><g id="vertStripes" mask="url(#grating)"><rect fill="#CD072B" height="100%" width="140" x="0" y="0"></rect><rect fill="#F2B409" height="100%" width="140" x="140" y="0"></rect><rect fill="#5C442B" height="100%" width="140" x="280" y="0"></rect><rect fill="#3D312B" height="100%" width="140" x="420" y="0"></rect><rect fill="#FFFFFF" height="100%" width="140" x="560" y="0"></rect><rect fill="#5C442B" height="100%" width="140" x="700" y="0"></rect></g></svg>