<svg
  width="14"
  height="13"
  viewBox="0 0 14 13"
  width="100%"
  height="100%"
  fill="none"
  xmlns="http://www.w3.org/2000/svg"
>
  <path
    fill-rule="evenodd"
    clip-rule="evenodd"
    d="M5.57735 6.08448L4.56284 5.06997C3.44225 3.94938 3.44225 2.13254 4.56284 1.01195C5.68343 -0.108639 7.50027 -0.108639 8.62086 1.01195C9.74145 2.13254 9.74145 3.94938 8.62086 5.06997L7.60636 6.08448V6.59173L8.11361 6.08448C9.2342 4.96389 11.051 4.96389 12.1716 6.08448C13.2922 7.20507 13.2922 9.02191 12.1716 10.1425L11.936 10.3781C10.9456 11.3686 9.33968 11.3686 8.34921 10.3781C7.87357 9.90246 7.60636 9.25735 7.60636 8.58469V8.11349H7.09911V8.8885C7.09911 10.2788 7.8846 11.5498 9.12812 12.1715H4.05559C5.2991 11.5498 6.0846 10.2788 6.0846 8.8885V8.11349H5.57735V8.58469C5.57735 9.25735 5.31013 9.90246 4.83449 10.3781C3.84402 11.3686 2.23815 11.3686 1.24768 10.3781L1.01207 10.1425C-0.108517 9.02191 -0.108517 7.20507 1.01207 6.08448C2.13267 4.96389 3.9495 4.96389 5.07009 6.08448L5.57735 6.59173V6.08448Z"
    fill="black"
  />
</svg>
