<svg
  width="13"
  height="13"
  viewBox="0 0 13 13"
  width="100%"
  height="100%"
  fill="none"
  xmlns="http://www.w3.org/2000/svg"
>
  <path
    d="M3.46759 3.56727C3.46759 1.95713 4.77274 0.651855 6.38301 0.651855C7.99303 0.651855 9.29842 1.95713 9.29842 3.56727C9.29842 4.42377 8.92901 5.19403 8.34085 5.72738L8.52852 6.05242C9.3715 5.63924 10.3981 5.63983 11.2722 6.14448C12.6665 6.94949 13.1444 8.7326 12.3394 10.127C11.5343 11.5214 9.75111 11.9992 8.35675 11.1941C7.7107 10.8211 7.26133 10.2381 7.04519 9.58103H6.86962C6.8969 10.8838 7.64332 12.0673 8.81252 12.6519H3.95349C5.12269 12.0673 5.86911 10.8838 5.89639 9.58103H5.72058C5.50444 10.2381 5.05508 10.8211 4.40902 11.1941C3.01466 11.9992 1.23168 11.5214 0.426424 10.127C-0.37859 8.7326 0.099246 6.94949 1.49361 6.14448C2.36766 5.63983 3.39451 5.63924 4.23725 6.05254L4.42516 5.7275C3.837 5.19403 3.46759 4.42377 3.46759 3.56727Z"
    fill="black"
  />
</svg>
